# xmcd
#
# Track frame offsets:
#	150
#	14140
#	25542
#	36335
#	46737
#	56402
#	72965
#	84160
#	105992
#	122262
#	134532
#	147705
#	163805
#	179417
#	191255
#	207460
#	226645
#	244077
#
# Disc length: 3411
#
# Revision: 2
# Processed by: cddbd v1.5.1PL0 Copyright (c) Steve Scherf et al.
# Submitted via: audiograbber 1.81.03
# Normalized: r1:DSETVAR1
#
DISCID=ef0d5112
DTITLE=Various Artist - Country CD 3
DYEAR=1900
DGENRE=Country
TTITLE0=Bobbie Gentry - Raindrops keep falling on my head
TTITLE1=George Jones - Running bear
TTITLE2=Eddie Rabbitt - Two dollars in the jukebox
TTITLE3=Chet Atkins - Mr Sandman
TTITLE4=Waylon Jennings - Theme from the dukes of hazzaard
TTITLE5=Alabama - Can't keep a good man down
TTITLE6=Nitty gritty Dirt Band - Honky tonkin'
TTITLE7=Charlie Daniels - Tennessee two step
TTITLE8=Dean Miller - I feel bad
TTITLE9=The Pirates of the Mississippi - The wild side of life
TTITLE10=Suzy Bogguss - I want to be a cowboy's sweetheart
TTITLE11=Lorrie Morgan - Five minutes
TTITLE12=Mindy McCready - Ten thousand angels
TTITLE13=BR5-49 - Honky tonk song
TTITLE14=Lacy J dalton - Black Coffee
TTITLE15=Chris Ledoux - Cadillac Ranch
TTITLE16=Dan Seals - Love on arrival
TTITLE17=Wild Rose - Go down Swingin'
EXTD=
EXTT0=
EXTT1=
EXTT2=
EXTT3=
EXTT4=
EXTT5=
EXTT6=
EXTT7=
EXTT8=
EXTT9=
EXTT10=
EXTT11=
EXTT12=
EXTT13=
EXTT14=
EXTT15=
EXTT16=
EXTT17=
PLAYORDER=
